<svg width="83" height="42" viewBox="0 0 83 42" fill="none" xmlns="http://www.w3.org/2000/svg">
<path d="M15.6882 17L15.6642 5.864L10.1442 15.08H8.75224L3.23224 6.008V17H0.256244V0.199999H2.82424L9.49624 11.336L16.0482 0.199999H18.6162L18.6402 17H15.6882ZM35.7781 14.384V17H23.1781V0.199999H35.4421V2.816H26.2981V7.184H34.4101V9.752H26.2981V14.384H35.7781ZM39.2562 0.199999H46.6002C48.3922 0.199999 49.9842 0.551999 51.3762 1.256C52.7682 1.944 53.8482 2.928 54.6162 4.208C55.3842 5.472 55.7682 6.936 55.7682 8.6C55.7682 10.264 55.3842 11.736 54.6162 13.016C53.8482 14.28 52.7682 15.264 51.3762 15.968C49.9842 16.656 48.3922 17 46.6002 17H39.2562V0.199999ZM46.4562 14.36C47.6882 14.36 48.7682 14.128 49.6962 13.664C50.6402 13.184 51.3602 12.512 51.8562 11.648C52.3682 10.768 52.6242 9.752 52.6242 8.6C52.6242 7.448 52.3682 6.44 51.8562 5.576C51.3602 4.696 50.6402 4.024 49.6962 3.56C48.7682 3.08 47.6882 2.84 46.4562 2.84H42.3762V14.36H46.4562ZM59.0844 0.199999H62.2044V17H59.0844V0.199999ZM77.6444 13.112H69.2444L67.5884 17H64.3724L71.9324 0.199999H75.0044L82.5884 17H79.3244L77.6444 13.112ZM76.6124 10.664L73.4444 3.32L70.3004 10.664H76.6124ZM0.256244 25.2H7.60024C9.39224 25.2 10.9842 25.552 12.3762 26.256C13.7682 26.944 14.8482 27.928 15.6162 29.208C16.3842 30.472 16.7682 31.936 16.7682 33.6C16.7682 35.264 16.3842 36.736 15.6162 38.016C14.8482 39.28 13.7682 40.264 12.3762 40.968C10.9842 41.656 9.39224 42 7.60024 42H0.256244V25.2ZM7.45624 39.36C8.68824 39.36 9.76824 39.128 10.6962 38.664C11.6402 38.184 12.3602 37.512 12.8562 36.648C13.3682 35.768 13.6242 34.752 13.6242 33.6C13.6242 32.448 13.3682 31.44 12.8562 30.576C12.3602 29.696 11.6402 29.024 10.6962 28.56C9.76824 28.08 8.68824 27.84 7.45624 27.84H3.37624V39.36H7.45624ZM31.0764 42L27.6444 37.08C27.5004 37.096 27.2844 37.104 26.9964 37.104H23.2044V42H20.0844V25.2H26.9964C28.4524 25.2 29.7164 25.44 30.7884 25.92C31.8764 26.4 32.7084 27.088 33.2844 27.984C33.8604 28.88 34.1484 29.944 34.1484 31.176C34.1484 32.44 33.8364 33.528 33.2124 34.44C32.6044 35.352 31.7244 36.032 30.5724 36.48L34.4364 42H31.0764ZM31.0044 31.176C31.0044 30.104 30.6524 29.28 29.9484 28.704C29.2444 28.128 28.2124 27.84 26.8524 27.84H23.2044V34.536H26.8524C28.2124 34.536 29.2444 34.248 29.9484 33.672C30.6524 33.08 31.0044 32.248 31.0044 31.176ZM37.6391 25.2H40.7591V42H37.6391V25.2ZM60.5459 25.2L53.2259 42H50.1539L42.8099 25.2H46.1939L51.7859 38.16L57.4259 25.2H60.5459ZM74.9187 39.384V42H62.3187V25.2H74.5827V27.816H65.4387V32.184H73.5507V34.752H65.4387V39.384H74.9187Z" fill="#1C2F53"/>
</svg>
