<svg width="104" height="104" viewBox="0 0 104 104" fill="none" xmlns="http://www.w3.org/2000/svg">
<g filter="url(#filter0_d_1510_30387)">
<circle cx="52" cy="46" r="40" fill="white"/>
</g>
<path fill-rule="evenodd" clip-rule="evenodd" d="M36 39.7996C36 39.2473 36.4477 38.7996 37 38.7996H67C67.5523 38.7996 68 39.2473 68 39.7996V55.5996C68 56.8726 67.5184 58.0935 66.6611 58.9937C65.8038 59.8939 64.641 60.3996 63.4286 60.3996H40.5714C39.359 60.3996 38.1962 59.8939 37.3389 58.9937C36.4816 58.0935 36 56.8726 36 55.5996V39.7996ZM47.4286 45.9996C47.4286 45.3631 47.6694 44.7526 48.098 44.3026C48.5267 43.8525 49.1081 43.5996 49.7143 43.5996H54.2857C54.8919 43.5996 55.4733 43.8525 55.902 44.3026C56.3306 44.7526 56.5714 45.3631 56.5714 45.9996C56.5714 46.6361 56.3306 47.2466 55.902 47.6967C55.4733 48.1468 54.8919 48.3996 54.2857 48.3996H49.7143C49.1081 48.3996 48.5267 48.1468 48.098 47.6967C47.6694 47.2466 47.4286 46.6361 47.4286 45.9996Z" fill="url(#paint0_linear_1510_30387)"/>
<path d="M40.5714 33.9996C40.5714 32.6741 41.5948 31.5996 42.8571 31.5996H61.1429C62.4052 31.5996 63.4286 32.6741 63.4286 33.9996V38.7996H40.5714V33.9996Z" fill="url(#paint1_linear_1510_30387)"/>
<defs>
<filter id="filter0_d_1510_30387" x="0" y="0" width="104" height="104" filterUnits="userSpaceOnUse" color-interpolation-filters="sRGB">
<feFlood flood-opacity="0" result="BackgroundImageFix"/>
<feColorMatrix in="SourceAlpha" type="matrix" values="0 0 0 0 0 0 0 0 0 0 0 0 0 0 0 0 0 0 127 0" result="hardAlpha"/>
<feOffset dy="6"/>
<feGaussianBlur stdDeviation="6"/>
<feComposite in2="hardAlpha" operator="out"/>
<feColorMatrix type="matrix" values="0 0 0 0 0.578472 0 0 0 0 0.645167 0 0 0 0 0.816667 0 0 0 0.25 0"/>
<feBlend mode="normal" in2="BackgroundImageFix" result="effect1_dropShadow_1510_30387"/>
<feBlend mode="normal" in="SourceGraphic" in2="effect1_dropShadow_1510_30387" result="shape"/>
</filter>
<linearGradient id="paint0_linear_1510_30387" x1="45.2252" y1="33.0266" x2="56.205" y2="59.9732" gradientUnits="userSpaceOnUse">
<stop stop-color="#C40FE1"/>
<stop offset="0.9999" stop-color="#481699"/>
</linearGradient>
<linearGradient id="paint1_linear_1510_30387" x1="45.2252" y1="33.0266" x2="56.205" y2="59.9732" gradientUnits="userSpaceOnUse">
<stop stop-color="#C40FE1"/>
<stop offset="0.9999" stop-color="#481699"/>
</linearGradient>
</defs>
</svg>
