<svg width="104" height="104" viewBox="0 0 104 104" fill="none" xmlns="http://www.w3.org/2000/svg">
<g filter="url(#filter0_d_1510_30383)">
<circle cx="52" cy="46" r="40" fill="white"/>
</g>
<path d="M61 41.7885L68 35.122C61.4544 45.1787 58.3398 54.2939 57.0813 62.8814C54.2857 65.2251 49.7143 65.2251 46.9187 62.8814C45.6602 54.2939 42.5456 45.1787 36 35.122L43 41.7885L38.5 33.8721L46 41.3718L45.9224 40.7901C43.831 39.338 42.5 37.1512 42.5 34.7054C42.5 30.4731 46.4857 27.0165 51.5 26.7998H52.5C57.5143 27.0165 61.5 30.4731 61.5 34.7054C61.5 37.1512 60.169 39.338 58.0776 40.7901L58 41.3718L65.5 33.8721L61 41.7885Z" fill="url(#paint0_linear_1510_30383)"/>
<defs>
<filter id="filter0_d_1510_30383" x="0" y="0" width="104" height="104" filterUnits="userSpaceOnUse" color-interpolation-filters="sRGB">
<feFlood flood-opacity="0" result="BackgroundImageFix"/>
<feColorMatrix in="SourceAlpha" type="matrix" values="0 0 0 0 0 0 0 0 0 0 0 0 0 0 0 0 0 0 127 0" result="hardAlpha"/>
<feOffset dy="6"/>
<feGaussianBlur stdDeviation="6"/>
<feComposite in2="hardAlpha" operator="out"/>
<feColorMatrix type="matrix" values="0 0 0 0 0.578472 0 0 0 0 0.645167 0 0 0 0 0.816667 0 0 0 0.25 0"/>
<feBlend mode="normal" in2="BackgroundImageFix" result="effect1_dropShadow_1510_30383"/>
<feBlend mode="normal" in="SourceGraphic" in2="effect1_dropShadow_1510_30383" result="shape"/>
</filter>
<linearGradient id="paint0_linear_1510_30383" x1="58.7748" y1="28.6747" x2="41.5973" y2="60.761" gradientUnits="userSpaceOnUse">
<stop stop-color="#C40FE1"/>
<stop offset="0.9999" stop-color="#481699"/>
</linearGradient>
</defs>
</svg>
