<svg width="104" height="104" viewBox="0 0 104 104" fill="none" xmlns="http://www.w3.org/2000/svg">
<g filter="url(#filter0_d_1510_30416)">
<circle cx="52" cy="46" r="40" fill="white"/>
</g>
<path d="M49.5998 34.1471C49.5998 33.7638 49.3817 33.4122 49.0316 33.2564C46.5698 32.1612 43.9009 31.5956 41.1998 31.5996C38.4108 31.5996 35.7597 32.1937 33.3684 33.2566C33.0181 33.4123 32.7998 33.764 32.7998 34.1474V55.8157C32.7998 56.5536 33.5747 57.0416 34.2632 56.7761C36.471 55.9248 38.8229 55.4872 41.1998 55.4907C44.9617 55.4907 48.4696 56.5654 51.4313 58.4279C51.7784 58.6462 52.2213 58.6462 52.5684 58.428C55.6264 56.5061 59.1741 55.485 62.7998 55.4907C65.2456 55.4907 67.5854 55.9475 69.7369 56.7768C70.4254 57.0422 71.1998 56.5542 71.1998 55.8165V34.1471C71.1998 33.7638 70.9817 33.4122 70.6316 33.2564C68.1698 32.1612 65.5009 31.5956 62.7998 31.5996C60.0108 31.5996 57.3597 32.1937 54.9684 33.2566C54.6181 33.4123 54.3998 33.764 54.3998 34.1474V37.2105C54.3998 37.8441 54.1469 38.4518 53.6969 38.8999C53.2468 39.3479 52.6363 39.5996 51.9998 39.5996C51.3633 39.5996 50.7528 39.3479 50.3027 38.8999C49.8527 38.4518 49.5998 37.8441 49.5998 37.2105V34.1471Z" fill="url(#paint0_linear_1510_30416)"/>
<defs>
<filter id="filter0_d_1510_30416" x="0" y="0" width="104" height="104" filterUnits="userSpaceOnUse" color-interpolation-filters="sRGB">
<feFlood flood-opacity="0" result="BackgroundImageFix"/>
<feColorMatrix in="SourceAlpha" type="matrix" values="0 0 0 0 0 0 0 0 0 0 0 0 0 0 0 0 0 0 127 0" result="hardAlpha"/>
<feOffset dy="6"/>
<feGaussianBlur stdDeviation="6"/>
<feComposite in2="hardAlpha" operator="out"/>
<feColorMatrix type="matrix" values="0 0 0 0 0.578472 0 0 0 0 0.645167 0 0 0 0 0.816667 0 0 0 0.25 0"/>
<feBlend mode="normal" in2="BackgroundImageFix" result="effect1_dropShadow_1510_30416"/>
<feBlend mode="normal" in="SourceGraphic" in2="effect1_dropShadow_1510_30416" result="shape"/>
</filter>
<linearGradient id="paint0_linear_1510_30416" x1="43.8701" y1="32.9474" x2="52.499" y2="59.855" gradientUnits="userSpaceOnUse">
<stop stop-color="#C40FE1"/>
<stop offset="0.9999" stop-color="#481699"/>
</linearGradient>
</defs>
</svg>
