<svg width="104" height="104" viewBox="0 0 104 104" fill="none" xmlns="http://www.w3.org/2000/svg">
<g filter="url(#filter0_d_1510_30418)">
<circle cx="52" cy="46" r="40" fill="white"/>
</g>
<rect x="50.6094" y="57.875" width="21.7966" height="5.81243" rx="2" fill="url(#paint0_linear_1510_30418)"/>
<path fill-rule="evenodd" clip-rule="evenodd" d="M40.8989 34.8642C40.043 34.0177 40.0354 32.6376 40.8819 31.7817L48.0346 24.5496C48.8811 23.6937 50.2612 23.6861 51.1171 24.5326C51.7917 25.1999 51.9393 26.1987 51.5569 27.0109L65.1645 40.469C65.9725 40.0776 66.9729 40.2142 67.6476 40.8815C68.5035 41.7279 68.5111 43.108 67.6646 43.9639L60.5119 51.196C59.6654 52.0519 58.2854 52.0596 57.4295 51.2131C56.7546 50.5456 56.6071 49.5465 56.9899 48.7341L51.6474 43.4504C51.5447 43.6687 51.4037 43.8735 51.2244 44.0548L35.8973 59.5523C35.0508 60.4082 33.6707 60.4158 32.8148 59.5693C31.9589 58.7228 31.9513 57.3427 32.7978 56.4868L48.125 40.9894C48.3043 40.8081 48.5075 40.6649 48.7247 40.5597L43.3826 35.2764C42.5745 35.6681 41.5738 35.5316 40.8989 34.8642Z" fill="url(#paint1_linear_1510_30418)"/>
<defs>
<filter id="filter0_d_1510_30418" x="0" y="0" width="104" height="104" filterUnits="userSpaceOnUse" color-interpolation-filters="sRGB">
<feFlood flood-opacity="0" result="BackgroundImageFix"/>
<feColorMatrix in="SourceAlpha" type="matrix" values="0 0 0 0 0 0 0 0 0 0 0 0 0 0 0 0 0 0 127 0" result="hardAlpha"/>
<feOffset dy="6"/>
<feGaussianBlur stdDeviation="6"/>
<feComposite in2="hardAlpha" operator="out"/>
<feColorMatrix type="matrix" values="0 0 0 0 0.578472 0 0 0 0 0.645167 0 0 0 0 0.816667 0 0 0 0.25 0"/>
<feBlend mode="normal" in2="BackgroundImageFix" result="effect1_dropShadow_1510_30418"/>
<feBlend mode="normal" in="SourceGraphic" in2="effect1_dropShadow_1510_30418" result="shape"/>
</filter>
<linearGradient id="paint0_linear_1510_30418" x1="56.8931" y1="58.163" x2="57.6477" y2="64.4132" gradientUnits="userSpaceOnUse">
<stop stop-color="#C40FE1"/>
<stop offset="0.9999" stop-color="#481699"/>
</linearGradient>
<linearGradient id="paint1_linear_1510_30418" x1="31.6317" y1="43.0801" x2="57.2511" y2="55.785" gradientUnits="userSpaceOnUse">
<stop stop-color="#C40FE1"/>
<stop offset="0.9999" stop-color="#481699"/>
</linearGradient>
</defs>
</svg>
