<svg width="104" height="104" viewBox="0 0 104 104" fill="none" xmlns="http://www.w3.org/2000/svg">
<g filter="url(#filter0_d_1510_30419)">
<circle cx="52" cy="46" r="40" fill="white"/>
</g>
<path d="M49.2621 48.843C48.6169 55.1702 39.155 59.1966 31.2002 52.486C31.3141 61.0737 41.6857 62.2947 49.6917 59.1967C48.8793 61.7317 48.2079 64.9508 51.3961 67.8849C51.7377 68.1993 52.2627 68.1993 52.6043 67.8849C55.7925 64.9508 55.121 61.7317 54.3087 59.1967C62.3147 62.2947 72.6862 61.0737 72.8002 52.486C64.8454 59.1966 55.3835 55.1702 54.7383 48.843C54.3669 45.2 56.6742 41.7488 60.3301 41.1736C65.7063 40.3277 66.5665 43.6661 65.4912 45.7752C64.5137 47.6926 62.9107 48.2678 59.6849 47.6926C61.4053 53.0612 68.0718 51.5273 70.4374 48.4595C74.9534 41.7488 69.1152 36.523 65.4912 35.805C61.6204 35.038 60.115 35.805 56.0291 37.7223C59.1682 31.5649 58.4919 26.1337 52.5075 22.3125C52.1987 22.1153 51.8017 22.1153 51.4929 22.3125C45.5085 26.1337 44.8321 31.5649 47.9713 37.7223C43.8854 35.805 42.38 35.038 38.5091 35.805C34.8852 36.523 29.047 41.7488 33.563 48.4595C35.9286 51.5273 42.5951 53.0612 44.3155 47.6926C41.0897 48.2678 39.4866 47.6926 38.5091 45.7752C37.4339 43.6661 38.2941 40.3277 43.6703 41.1736C47.3262 41.7488 49.6335 45.2 49.2621 48.843Z" fill="url(#paint0_linear_1510_30419)"/>
<defs>
<filter id="filter0_d_1510_30419" x="0" y="0" width="104" height="104" filterUnits="userSpaceOnUse" color-interpolation-filters="sRGB">
<feFlood flood-opacity="0" result="BackgroundImageFix"/>
<feColorMatrix in="SourceAlpha" type="matrix" values="0 0 0 0 0 0 0 0 0 0 0 0 0 0 0 0 0 0 127 0" result="hardAlpha"/>
<feOffset dy="6"/>
<feGaussianBlur stdDeviation="6"/>
<feComposite in2="hardAlpha" operator="out"/>
<feColorMatrix type="matrix" values="0 0 0 0 0.578472 0 0 0 0 0.645167 0 0 0 0 0.816667 0 0 0 0.25 0"/>
<feBlend mode="normal" in2="BackgroundImageFix" result="effect1_dropShadow_1510_30419"/>
<feBlend mode="normal" in="SourceGraphic" in2="effect1_dropShadow_1510_30419" result="shape"/>
</filter>
<linearGradient id="paint0_linear_1510_30419" x1="43.193" y1="24.2991" x2="63.5617" y2="64.6352" gradientUnits="userSpaceOnUse">
<stop stop-color="#C40FE1"/>
<stop offset="0.9999" stop-color="#481699"/>
</linearGradient>
</defs>
</svg>
