<svg width="104" height="104" viewBox="0 0 104 104" fill="none" xmlns="http://www.w3.org/2000/svg">
<g filter="url(#filter0_d_1510_30384)">
<circle cx="52" cy="46" r="40" fill="white"/>
</g>
<path d="M30.9043 57.2H46.1001C46.6524 57.2 47.1001 56.7523 47.1001 56.2V48.3643C47.1001 46.4009 47.8001 42.4739 52.0001 42.4739C56.2001 42.4739 56.9001 46.4009 56.9001 48.3643V56.2C56.9001 56.7523 57.3478 57.2 57.9001 57.2H73.0959C73.7537 57.2 74.2326 56.5763 74.0548 55.943C72.1129 49.0266 69.1277 40.871 65.1251 35.484C61.9751 31.2445 56.5501 30 52.0001 30C47.4501 30 42.0251 31.2445 38.8751 35.484C34.8725 40.871 31.8873 49.0266 29.9454 55.943C29.7676 56.5763 30.2465 57.2 30.9043 57.2Z" fill="url(#paint0_linear_1510_30384)"/>
<defs>
<filter id="filter0_d_1510_30384" x="0" y="0" width="104" height="104" filterUnits="userSpaceOnUse" color-interpolation-filters="sRGB">
<feFlood flood-opacity="0" result="BackgroundImageFix"/>
<feColorMatrix in="SourceAlpha" type="matrix" values="0 0 0 0 0 0 0 0 0 0 0 0 0 0 0 0 0 0 127 0" result="hardAlpha"/>
<feOffset dy="6"/>
<feGaussianBlur stdDeviation="6"/>
<feComposite in2="hardAlpha" operator="out"/>
<feColorMatrix type="matrix" values="0 0 0 0 0.578472 0 0 0 0 0.645167 0 0 0 0 0.816667 0 0 0 0.25 0"/>
<feBlend mode="normal" in2="BackgroundImageFix" result="effect1_dropShadow_1510_30384"/>
<feBlend mode="normal" in="SourceGraphic" in2="effect1_dropShadow_1510_30384" result="shape"/>
</filter>
<linearGradient id="paint0_linear_1510_30384" x1="42.5154" y1="31.3477" x2="50.0993" y2="58.938" gradientUnits="userSpaceOnUse">
<stop stop-color="#C40FE1"/>
<stop offset="0.9999" stop-color="#481699"/>
</linearGradient>
</defs>
</svg>
