<svg width="104" height="104" viewBox="0 0 104 104" fill="none" xmlns="http://www.w3.org/2000/svg">
<g filter="url(#filter0_d_1510_30368)">
<circle cx="52" cy="46" r="40" fill="white"/>
</g>
<path d="M59.987 61.1922L57.1069 57.1602" stroke="url(#paint0_linear_1510_30368)" stroke-width="6" stroke-linecap="round"/>
<path d="M42 44.001C42 40.0368 43.2219 37.3458 44.8907 35.6565C46.5691 33.9575 48.9661 33 51.8255 33C54.6849 33 57.0819 33.9575 58.7603 35.6565C60.4292 37.3458 61.651 40.0368 61.651 44.001V47.6855C61.651 52.7566 59.6655 55.7835 57.1274 57.3151C55.6661 58.197 53.8645 58.6866 51.8255 58.6866C48.9661 58.6866 46.5691 57.7291 44.8907 56.0301C43.2219 54.3408 42 51.6498 42 47.6855V44.001Z" stroke="url(#paint1_linear_1510_30368)" stroke-width="6"/>
<defs>
<filter id="filter0_d_1510_30368" x="0" y="0" width="104" height="104" filterUnits="userSpaceOnUse" color-interpolation-filters="sRGB">
<feFlood flood-opacity="0" result="BackgroundImageFix"/>
<feColorMatrix in="SourceAlpha" type="matrix" values="0 0 0 0 0 0 0 0 0 0 0 0 0 0 0 0 0 0 127 0" result="hardAlpha"/>
<feOffset dy="6"/>
<feGaussianBlur stdDeviation="6"/>
<feComposite in2="hardAlpha" operator="out"/>
<feColorMatrix type="matrix" values="0 0 0 0 0.578472 0 0 0 0 0.645167 0 0 0 0 0.816667 0 0 0 0.25 0"/>
<feBlend mode="normal" in2="BackgroundImageFix" result="effect1_dropShadow_1510_30368"/>
<feBlend mode="normal" in="SourceGraphic" in2="effect1_dropShadow_1510_30368" result="shape"/>
</filter>
<linearGradient id="paint0_linear_1510_30368" x1="57.9372" y1="57.3599" x2="59.9263" y2="60.4981" gradientUnits="userSpaceOnUse">
<stop stop-color="#C40FE1"/>
<stop offset="0.9999" stop-color="#481699"/>
</linearGradient>
<linearGradient id="paint1_linear_1510_30368" x1="46.3949" y1="31.5701" x2="61.1221" y2="57.9033" gradientUnits="userSpaceOnUse">
<stop stop-color="#C40FE1"/>
<stop offset="0.9999" stop-color="#481699"/>
</linearGradient>
</defs>
</svg>
