<svg width="104" height="104" viewBox="0 0 104 104" fill="none" xmlns="http://www.w3.org/2000/svg">
<g filter="url(#filter0_d_1510_30385)">
<circle cx="52" cy="46" r="40" fill="white"/>
</g>
<path d="M58.6 42L68.3131 37.448C68.6382 37.2957 68.9995 37.2238 69.3627 37.2391C69.7258 37.2544 70.0787 37.3565 70.388 37.5356C70.6972 37.7147 70.9525 37.965 71.1296 38.2625C71.3067 38.5601 71.3998 38.8952 71.4 39.236V52.764C71.3998 53.1048 71.3067 53.4399 71.1296 53.7375C70.9525 54.035 70.6972 54.2853 70.388 54.4644C70.0787 54.6435 69.7258 54.7456 69.3627 54.7609C68.9995 54.7762 68.6382 54.7043 68.3131 54.552L58.6 50V42ZM37.2667 58H54.3333C55.4649 58 56.5502 57.5786 57.3503 56.8284C58.1505 56.0783 58.6 55.0609 58.6 54V38C58.6 36.9391 58.1505 35.9217 57.3503 35.1716C56.5502 34.4214 55.4649 34 54.3333 34H37.2667C36.1351 34 35.0498 34.4214 34.2497 35.1716C33.4495 35.9217 33 36.9391 33 38V54C33 55.0609 33.4495 56.0783 34.2497 56.8284C35.0498 57.5786 36.1351 58 37.2667 58Z" fill="url(#paint0_linear_1510_30385)"/>
<defs>
<filter id="filter0_d_1510_30385" x="0" y="0" width="104" height="104" filterUnits="userSpaceOnUse" color-interpolation-filters="sRGB">
<feFlood flood-opacity="0" result="BackgroundImageFix"/>
<feColorMatrix in="SourceAlpha" type="matrix" values="0 0 0 0 0 0 0 0 0 0 0 0 0 0 0 0 0 0 127 0" result="hardAlpha"/>
<feOffset dy="6"/>
<feGaussianBlur stdDeviation="6"/>
<feComposite in2="hardAlpha" operator="out"/>
<feColorMatrix type="matrix" values="0 0 0 0 0.578472 0 0 0 0 0.645167 0 0 0 0 0.816667 0 0 0 0.25 0"/>
<feBlend mode="normal" in2="BackgroundImageFix" result="effect1_dropShadow_1510_30385"/>
<feBlend mode="normal" in="SourceGraphic" in2="effect1_dropShadow_1510_30385" result="shape"/>
</filter>
<linearGradient id="paint0_linear_1510_30385" x1="44.0703" y1="35.1892" x2="50.93" y2="59.4318" gradientUnits="userSpaceOnUse">
<stop stop-color="#C40FE1"/>
<stop offset="0.9999" stop-color="#481699"/>
</linearGradient>
</defs>
</svg>
