<svg width="22" height="17" viewBox="0 0 22 17" fill="none" xmlns="http://www.w3.org/2000/svg">
<path d="M14 8.5C14 9.42826 13.6839 10.3185 13.1213 10.9749C12.5587 11.6313 11.7956 12 11 12C10.2044 12 9.44129 11.6313 8.87868 10.9749C8.31607 10.3185 8 9.42826 8 8.5C8 7.57174 8.31607 6.6815 8.87868 6.02513C9.44129 5.36875 10.2044 5 11 5C11.7956 5 12.5587 5.36875 13.1213 6.02513C13.6839 6.6815 14 7.57174 14 8.5V8.5Z" stroke="#1C2F53" stroke-width="2" stroke-linecap="round" stroke-linejoin="round"/>
<path d="M2.13349 11C1.65631 10.2277 1.27301 9.38882 1 8.5C2.33515 4.15321 6.30811 1 11 1C15.6929 1 19.6649 4.15321 21 8.5C19.6649 12.8468 15.6929 16 11 16C9.02 16 7.16804 15.4385 5.58832 14.4626" stroke="#1C2F53" stroke-width="2" stroke-linecap="round" stroke-linejoin="round"/>
</svg>
