<svg width="27" height="26" viewBox="0 0 27 26" fill="none" xmlns="http://www.w3.org/2000/svg">
<path d="M13.2187 4V1M13.2187 4C12.4252 4 11.6641 4.31607 11.103 4.87868C10.5418 5.44129 10.2266 6.20435 10.2266 7C10.2266 7.79565 10.5418 8.55871 11.103 9.12132C11.6641 9.68393 12.4252 10 13.2187 10M13.2187 4C14.0123 4 14.7734 4.31607 15.3345 4.87868C15.8957 5.44129 16.2109 6.20435 16.2109 7C16.2109 7.79565 15.8957 8.55871 15.3345 9.12132C14.7734 9.68393 14.0123 10 13.2187 10M13.2187 10V25M4.24219 22C5.03576 22 5.79684 21.6839 6.35798 21.1213C6.91913 20.5587 7.23437 19.7956 7.23437 19C7.23437 18.2044 6.91913 17.4413 6.35798 16.8787C5.79684 16.3161 5.03576 16 4.24219 16M4.24219 22C3.44861 22 2.68754 21.6839 2.12639 21.1213C1.56525 20.5587 1.25 19.7956 1.25 19C1.25 18.2044 1.56525 17.4413 2.12639 16.8787C2.68754 16.3161 3.44861 16 4.24219 16M4.24219 22V25M4.24219 16V1M22.1953 22C22.9889 22 23.75 21.6839 24.3111 21.1213C24.8723 20.5587 25.1875 19.7956 25.1875 19C25.1875 18.2044 24.8723 17.4413 24.3111 16.8787C23.75 16.3161 22.9889 16 22.1953 16C21.4017 16 20.6407 16.3161 20.0795 16.8787C19.5184 17.4413 19.2031 18.2044 19.2031 19C19.2031 19.7956 19.5184 20.5587 20.0795 21.1213C20.6407 21.6839 21.4017 22 22.1953 22ZM22.1953 22V25M22.1953 1V11" stroke="#fff" stroke-width="2" stroke-linecap="round" stroke-linejoin="round"/>
</svg>
