<svg width="46" height="51" viewBox="0 0 46 51" fill="none" xmlns="http://www.w3.org/2000/svg">
<path d="M15.3695 45.846C14.2684 46.5356 12.9885 46.9316 11.6663 46.9919C10.3442 47.0522 9.0294 46.7744 7.86225 46.1883C6.6951 45.6021 5.71938 44.7295 5.03918 43.6635C4.35898 42.5976 3.99982 41.3783 4.00002 40.1358V10.878C3.99717 9.63427 4.3544 8.41322 5.03354 7.34532C5.71267 6.27742 6.68818 5.40282 7.8558 4.81499C9.02342 4.22716 10.3393 3.9482 11.6627 4.00792C12.9861 4.06764 14.2674 4.4638 15.3695 5.15406L38.7447 19.7864C39.7461 20.4132 40.5671 21.2691 41.135 22.2653C41.7029 23.2614 42 24.3737 42 25.5034C42 26.6332 41.7029 27.7455 41.135 28.7416C40.5671 29.7377 39.7461 30.5868 38.7447 31.2136L27.2698 38.3966" stroke="#319AE6" stroke-width="8" stroke-linecap="round" stroke-linejoin="round"/>
</svg>
