<svg width="24" height="19" viewBox="0 0 24 19" fill="none" xmlns="http://www.w3.org/2000/svg">
<path d="M23.3301 3.26562C23.1082 1.95984 22.0511 1.00891 20.8244 0.712036C18.9886 0.296875 15.5911 0 11.9152 0C8.24144 0 4.78956 0.296875 2.9516 0.712036C1.72703 1.00891 0.667754 1.89954 0.445894 3.26562C0.22186 4.75 0 6.82812 0 9.5C0 12.1719 0.22186 14.25 0.500272 15.7344C0.724307 17.0402 1.7814 17.9911 3.00598 18.288C4.95487 18.7031 8.29581 19 11.9717 19C15.6476 19 18.9886 18.7031 20.9375 18.288C22.162 17.9911 23.2191 17.1005 23.4432 15.7344C23.665 14.25 23.9434 12.1116 24 9.5C23.8869 6.82812 23.6085 4.75 23.3301 3.26562ZM8.90919 13.6562V5.34375L15.702 9.5L8.90919 13.6562Z" fill="#1C2F53"/>
</svg>
