<svg width="24" height="23" viewBox="0 0 24 23" fill="none" xmlns="http://www.w3.org/2000/svg">
<path d="M13.94 9.30999C13.0649 8.43512 11.8781 7.94365 10.6407 7.94365C9.40324 7.94365 8.21647 8.43512 7.34134 9.30999L2.67468 13.9767C2.22896 14.4071 1.87345 14.9221 1.62887 15.4914C1.3843 16.0608 1.25556 16.6731 1.25018 17.2928C1.24479 17.9124 1.36287 18.5269 1.59751 19.1004C1.83215 19.674 2.17867 20.195 2.61683 20.6332C3.055 21.0713 3.57604 21.4178 4.14956 21.6525C4.72308 21.8871 5.33758 22.0052 5.95722 21.9998C6.57685 21.9944 7.18921 21.8657 7.75857 21.6211C8.32792 21.3766 8.84286 21.021 9.27334 20.5753L10.559 19.2908M9.67468 13.5753C10.5498 14.4502 11.7366 14.9417 12.974 14.9417C14.2114 14.9417 15.3982 14.4502 16.2733 13.5753L17.0814 12.7673M13.058 3.59332L14.3413 2.30999C15.2215 1.45992 16.4003 0.989544 17.6239 1.00018C18.8475 1.01081 20.0179 1.5016 20.8832 2.36683C21.7484 3.23207 22.2392 4.40253 22.2498 5.62612C22.2605 6.8497 21.7901 8.02851 20.94 8.90866L20.5751 9.27353" stroke="#1C2F53" stroke-width="2" stroke-linecap="round" stroke-linejoin="round"/>
</svg>
