<svg width="23" height="22" viewBox="0 0 23 22" fill="none" xmlns="http://www.w3.org/2000/svg">
<path d="M3.625 21C2.92881 21 2.26113 20.7256 1.76884 20.2373C1.27656 19.7489 1 19.0865 1 18.3958V3.60417C1 2.9135 1.27656 2.25112 1.76884 1.76274C2.26113 1.27437 2.92881 1 3.625 1H19.375C20.0712 1 20.7389 1.27437 21.2312 1.76274C21.7234 2.25112 22 2.9135 22 3.60417V18.3958C22 19.0865 21.7234 19.7489 21.2312 20.2373C20.7389 20.7256 20.0712 21 19.375 21H8.56M15.4724 9.89118L10.8219 7.05546C10.6027 6.92169 10.3478 6.84491 10.0845 6.83334C9.82117 6.82176 9.55939 6.87583 9.3271 6.98975C9.0948 7.10367 8.90073 7.27316 8.76562 7.48012C8.6305 7.68708 8.55943 7.92372 8.56 8.16474V13.8349C8.55996 14.0757 8.63141 14.312 8.76674 14.5185C8.90206 14.7251 9.09618 14.8942 9.32838 15.0078C9.56058 15.1214 9.82215 15.1753 10.0852 15.1636C10.3482 15.1519 10.6029 15.0751 10.8219 14.9415L15.4724 12.1058C15.6716 11.9843 15.8349 11.8197 15.9479 11.6267C16.0609 11.4336 16.12 11.2181 16.12 10.9991C16.12 10.7802 16.0609 10.5646 15.9479 10.3716C15.8349 10.1785 15.6716 10.0127 15.4724 9.89118Z" stroke="#1C2F53" stroke-width="2" stroke-linecap="round" stroke-linejoin="round"/>
</svg>
