<svg width="21" height="22" viewBox="0 0 21 22" fill="none" xmlns="http://www.w3.org/2000/svg">
<path d="M6.27778 5.44444V1M14.7222 5.44444V1M5.22222 9.88889H15.7778M3.11111 21C2.55121 21 2.01424 20.7659 1.61833 20.3491C1.22242 19.9324 1 19.3671 1 18.7778V5.44444C1 4.85507 1.22242 4.28984 1.61833 3.8731C2.01424 3.45635 2.55121 3.22222 3.11111 3.22222H17.8889C18.4488 3.22222 18.9858 3.45635 19.3817 3.8731C19.7776 4.28984 20 4.85507 20 5.44444V18.7778C20 19.3671 19.7776 19.9324 19.3817 20.3491C18.9858 20.7659 18.4488 21 17.8889 21H8" stroke="#1C2F53" stroke-width="2" stroke-linecap="round" stroke-linejoin="round"/>
</svg>
