<svg width="17" height="22" viewBox="0 0 17 22" fill="none" xmlns="http://www.w3.org/2000/svg">
<path d="M3 21H1C1 18.9372 1.79018 16.9589 3.1967 15.5003C4.60322 14.0417 6.51088 13.2222 8.5 13.2222C10.4891 13.2222 12.3968 14.0417 13.8033 15.5003C15.2098 16.9589 16 18.9372 16 21H8M12.7857 5.44444C12.7857 6.62318 12.3342 7.75365 11.5305 8.58714C10.7267 9.42064 9.63664 9.88889 8.5 9.88889C7.36336 9.88889 6.27327 9.42064 5.46954 8.58714C4.66581 7.75365 4.21429 6.62318 4.21429 5.44444C4.21429 4.2657 4.66581 3.13524 5.46954 2.30175C6.27327 1.46825 7.36336 1 8.5 1C9.63664 1 10.7267 1.46825 11.5305 2.30175C12.3342 3.13524 12.7857 4.2657 12.7857 5.44444Z" stroke="#1C2F53" stroke-width="2" stroke-linecap="round" stroke-linejoin="round"/>
</svg>
