<svg width="26" height="26" viewBox="0 0 26 26" fill="none" xmlns="http://www.w3.org/2000/svg">
<path d="M8.34067 14.3589C8.60159 13.837 8.74884 13.248 8.74884 12.6255C8.74884 12.0029 8.60159 11.4139 8.34067 10.892M8.34067 14.3589C7.95021 15.1396 7.3076 15.7655 6.51696 16.1354C5.72632 16.5053 4.83397 16.5973 3.98446 16.3967C3.13494 16.1961 2.37804 15.7146 1.83637 15.0301C1.29471 14.3456 1 13.4983 1 12.6255C1 11.7526 1.29471 10.9053 1.83637 10.2208C2.37804 9.53633 3.13494 9.05479 3.98446 8.85418C4.83397 8.65358 5.72632 8.74567 6.51696 9.11554C7.3076 9.4854 7.95021 10.1114 8.34067 10.892M8.34067 14.3589L12.6413 16.5092M8.34067 10.892L16.907 6.60888M16.907 6.60888C17.1346 7.06407 17.4497 7.46996 17.8342 7.80338C18.2187 8.13681 18.6651 8.39124 19.1479 8.55214C19.6308 8.71304 20.1406 8.77727 20.6482 8.74115C21.1559 8.70504 21.6514 8.56929 22.1066 8.34165C22.5618 8.11402 22.9677 7.79895 23.3011 7.41445C23.6345 7.02995 23.889 6.58355 24.0499 6.10072C24.2108 5.61789 24.275 5.1081 24.2389 4.60045C24.2028 4.0928 24.067 3.59723 23.8394 3.14205C23.3797 2.22276 22.5736 1.52375 21.5984 1.19879C20.6233 0.87383 19.5591 0.949545 18.6398 1.40928C17.7205 1.86901 17.0215 2.67509 16.6965 3.65021C16.3716 4.62532 16.4473 5.68959 16.907 6.60888ZM16.907 18.642C16.4473 19.5615 16.3716 20.6259 16.6967 21.6012C17.0218 22.5764 17.721 23.3826 18.6404 23.8423C19.5599 24.302 20.6243 24.3777 21.5996 24.0526C22.5748 23.7275 23.3809 23.0283 23.8407 22.1089C24.3004 21.1894 24.3761 20.125 24.051 19.1498C23.7259 18.1745 23.0267 17.3684 22.1073 16.9086C21.652 16.681 21.1563 16.5453 20.6486 16.5092C20.1409 16.4731 19.631 16.5374 19.1481 16.6983C18.1729 17.0234 17.3667 17.7226 16.907 18.642Z" stroke="#1C2F53" stroke-width="2" stroke-linecap="round" stroke-linejoin="round"/>
</svg>
