<svg width="22" height="22" viewBox="0 0 22 22" fill="none" xmlns="http://www.w3.org/2000/svg">
<path d="M21.5846 1.19374C21.2093 0.873086 20.6199 0.827206 20.0104 1.07374H20.0094C19.3685 1.33289 1.86576 8.89743 1.15324 9.20648C1.02365 9.25186 -0.108174 9.67737 0.00841053 10.6252C0.112486 11.4798 1.02215 11.8337 1.13323 11.8745L5.58295 13.4097C5.87817 14.3999 6.96646 18.0531 7.20713 18.8336C7.35724 19.3201 7.60192 19.9594 8.03073 20.091C8.407 20.2372 8.78127 20.1036 9.02345 19.912L11.7439 17.3695L16.1356 20.8205L16.2402 20.8835C16.5384 21.0166 16.8241 21.0832 17.0968 21.0832C17.3075 21.0832 17.5096 21.0433 17.7027 20.9637C18.3607 20.6914 18.6239 20.0597 18.6514 19.9881L21.9318 2.80758C22.132 1.88999 21.8538 1.42313 21.5846 1.19374ZM9.5073 14.0238L8.00621 18.0572L6.50512 13.0155L18.0135 4.44461L9.5073 14.0238Z" fill="#1C2F53"/>
</svg>
