<svg width="120" height="120" viewBox="0 0 120 120" fill="none" xmlns="http://www.w3.org/2000/svg">
<path d="M44.9447 93.2997L47.3804 74.8415C47.5372 73.6533 48.2185 72.5981 49.2368 71.9661L60.15 65.1932C62.7928 63.553 66.2142 65.4244 66.2588 68.5344L66.4399 81.1493C66.4561 82.2786 65.9942 83.362 65.1682 84.1322L51.6382 96.7485C48.8939 99.3075 44.4538 97.0198 44.9447 93.2997Z" fill="#CB37FF"/>
<path d="M68.3445 22.9273L54.4632 35.3348C53.5696 36.1335 53.0813 37.2908 53.1325 38.4881L53.6815 51.3205C53.8144 54.428 57.2876 56.2015 59.8828 54.4869L70.4091 47.5324C71.3514 46.9099 71.9866 45.918 72.1579 44.8018L74.9639 26.5163C75.5331 22.8074 71.1422 20.4266 68.3445 22.9273Z" fill="#CB37FF"/>
<path d="M26.2203 44.9461L44.6785 47.3819C45.8667 47.5387 46.9219 48.2199 47.5539 49.2382L54.3269 60.1514C55.967 62.7942 54.0956 66.2157 50.9856 66.2603L38.3707 66.4413C37.2415 66.4576 36.158 65.9957 35.3878 65.1697L22.7715 51.6397C20.2125 48.8953 22.5002 44.4552 26.2203 44.9461Z" fill="#CB37FF"/>
<path d="M96.5903 68.345L84.1827 54.4637C83.3841 53.5701 82.2268 53.0818 81.0295 53.133L68.1971 53.682C65.0895 53.8149 63.3161 57.2881 65.0306 59.8833L71.9852 70.4096C72.6077 71.3518 73.5995 71.987 74.7158 72.1583L93.0012 74.9644C96.7102 75.5336 99.0909 71.1427 96.5903 68.345Z" fill="#CB37FF"/>
</svg>
