<svg width="98" height="156" viewBox="0 0 98 156" fill="none" xmlns="http://www.w3.org/2000/svg">
<mask id="mask0_1598_15538" style="mask-type:alpha" maskUnits="userSpaceOnUse" x="0" y="0" width="98" height="156">
<path d="M0 0H98V148C98 152.418 94.4183 156 90 156H0V0Z" fill="white"/>
</mask>
<g mask="url(#mask0_1598_15538)">
<circle cx="122" cy="114" r="81" transform="rotate(90 122 114)" fill="#F8F9FB"/>
<path opacity="0.9" d="M90.0512 42.8084L115.43 64.4549C117.634 66.3352 118.65 69.2606 118.084 72.1024L101.781 154.061C101.036 157.804 97.7512 160.5 93.9347 160.5L55.785 160.5C52.096 160.5 48.8853 157.977 48.0122 154.393L31.7007 87.4304C30.9676 84.4207 32.0379 81.2583 34.4481 79.3124L79.8343 42.6705C82.8296 40.2523 87.1224 40.3102 90.0512 42.8084Z" fill="#1C2F53"/>
</g>
<path d="M63.9333 113L58.1781 96.3984C57.8462 95.4411 58.9848 94.654 59.7631 95.3026L80.0781 112.232C80.5579 112.632 80.5579 113.368 80.0781 113.768L67 124.667L59.7631 130.697C58.9848 131.346 57.8462 130.559 58.1781 129.602L60.3725 123.272" stroke="#F9A528" stroke-width="4" stroke-linecap="round" stroke-linejoin="round"/>
</svg>
