<svg width="104" height="104" viewBox="0 0 104 104" fill="none" xmlns="http://www.w3.org/2000/svg">
<g filter="url(#filter0_d_1510_30388)">
<circle cx="52" cy="46" r="40" fill="white"/>
</g>
<path d="M34.3999 39.1162L39.2871 39.0314C44.1916 27.7567 54.481 25.7482 58.8685 23.3139C59.1149 23.1771 59.2799 22.9337 59.3323 22.6568L59.6364 21.0484C59.7046 20.6878 59.9707 20.41 60.3376 20.4023C60.7524 20.3935 61.2707 20.4169 61.6423 20.4371C61.9436 20.4536 62.2283 20.5995 62.4182 20.8339L63.2109 21.813C63.6057 22.3006 63.4537 23.0579 63.1114 23.5837C62.0974 25.1415 61.9539 28.1981 63.1963 30.9951C63.2159 31.0392 63.2331 31.0859 63.2464 31.1323C65.9097 40.437 64.4297 45.6595 62.964 49.2087C62.9182 49.3198 62.8924 49.4369 62.888 49.5569L62.6491 55.9965C62.6472 56.0478 62.6492 56.0991 62.6552 56.15L63.367 62.2215C63.3833 62.3606 63.4287 62.4948 63.5001 62.6152L64.2422 63.8663C64.5418 64.3714 64.3436 65.0249 63.8138 65.2784L58.5093 67.8169C58.451 67.8448 58.3956 67.8783 58.3438 67.9168L52.2392 72.4612C52.1106 72.5569 51.9609 72.6203 51.8028 72.6461L49.0624 73.0923C48.6611 73.1577 48.2603 72.9736 48.0483 72.6267L44.323 66.5293C44.1251 66.2053 43.7607 66.0213 43.3825 66.0544L37.7307 66.5493C37.4553 66.5734 37.1823 66.4824 36.9763 66.298L35.6596 65.1187C35.4387 64.9209 35.3171 64.6352 35.3274 64.3389L35.3899 62.5486C35.3925 62.4715 35.4042 62.3949 35.4245 62.3204L36.3231 59.0244C36.3657 58.8683 36.4455 58.7248 36.5558 58.6063L37.4268 57.6701C37.7773 57.2934 37.7847 56.7122 37.444 56.3267L36.7215 55.5093C36.5599 55.3265 36.4707 55.091 36.4707 54.847V54.6218C36.4707 54.5724 36.4778 54.5233 36.4917 54.4759C36.5981 54.113 36.2929 53.7618 35.9187 53.8166L35.8971 53.8197C35.6913 53.8498 35.4869 53.7575 35.3734 53.5833L35.2776 53.4362C35.1419 53.2278 35.1098 52.9685 35.1907 52.7333L36.5882 48.6677C36.6202 48.5747 36.6657 48.487 36.7232 48.4073L37.7959 46.9219C37.9548 46.7018 38.0174 46.4265 37.9693 46.1593L37.538 43.7626C37.4911 43.5019 37.5495 43.2333 37.7004 43.0157L39.2871 40.7272L34.3999 39.1162Z" fill="url(#paint0_linear_1510_30388)"/>
<defs>
<filter id="filter0_d_1510_30388" x="0" y="0" width="104" height="104" filterUnits="userSpaceOnUse" color-interpolation-filters="sRGB">
<feFlood flood-opacity="0" result="BackgroundImageFix"/>
<feColorMatrix in="SourceAlpha" type="matrix" values="0 0 0 0 0 0 0 0 0 0 0 0 0 0 0 0 0 0 127 0" result="hardAlpha"/>
<feOffset dy="6"/>
<feGaussianBlur stdDeviation="6"/>
<feComposite in2="hardAlpha" operator="out"/>
<feColorMatrix type="matrix" values="0 0 0 0 0.578472 0 0 0 0 0.645167 0 0 0 0 0.816667 0 0 0 0.25 0"/>
<feBlend mode="normal" in2="BackgroundImageFix" result="effect1_dropShadow_1510_30388"/>
<feBlend mode="normal" in="SourceGraphic" in2="effect1_dropShadow_1510_30388" result="shape"/>
</filter>
<linearGradient id="paint0_linear_1510_30388" x1="43.1639" y1="23.0166" x2="71.1534" y2="58.6117" gradientUnits="userSpaceOnUse">
<stop stop-color="#C40FE1"/>
<stop offset="0.9999" stop-color="#481699"/>
</linearGradient>
</defs>
</svg>
