<svg width="104" height="104" viewBox="0 0 104 104" fill="none" xmlns="http://www.w3.org/2000/svg">
<g filter="url(#filter0_d_1510_30420)">
<circle cx="52" cy="46" r="40" fill="white"/>
</g>
<path d="M52 31C49.8597 31 47.8833 31.259 46.4094 31.7012C45.6787 31.9204 45.0146 32.2012 44.5109 32.5585C44.0331 32.8974 43.5 33.4545 43.5 34.25V53.75C43.5 54.5455 44.0331 55.1026 44.5109 55.4415C45.0146 55.7988 45.6787 56.0796 46.4094 56.2988C47.8833 56.741 49.8597 57 52 57C54.1404 57 56.1167 56.741 57.5906 56.2988C58.3213 56.0796 58.9854 55.7988 59.4891 55.4415C59.9669 55.1026 60.5 54.5455 60.5 53.75V34.25C60.5 33.4545 59.9669 32.8974 59.4891 32.5585C58.9854 32.2012 58.3213 31.9204 57.5906 31.7012C56.1167 31.259 54.1404 31 52 31Z" fill="url(#paint0_linear_1510_30420)" stroke="white" stroke-width="2"/>
<path d="M38.5 48.25C36.3597 48.25 34.3833 48.509 32.9094 48.9512C32.1787 49.1704 31.5146 49.4512 31.0109 49.8085C30.5331 50.1474 30 50.7045 30 51.5V56.75C30 57.5455 30.5331 58.1026 31.0109 58.4415C31.5146 58.7988 32.1787 59.0796 32.9094 59.2988C34.3833 59.741 36.3597 60 38.5 60C40.6404 60 42.6167 59.741 44.0906 59.2988C44.8213 59.0796 45.4854 58.7988 45.9891 58.4415C46.4669 58.1026 47 57.5455 47 56.75V51.5C47 50.7045 46.4669 50.1474 45.9891 49.8085C45.4854 49.4512 44.8213 49.1704 44.0906 48.9512C42.6167 48.509 40.6404 48.25 38.5 48.25Z" fill="url(#paint1_linear_1510_30420)" stroke="white" stroke-width="2"/>
<path d="M65.5 40C63.3597 40 61.3833 40.259 59.9094 40.7012C59.1787 40.9204 58.5146 41.2012 58.0109 41.5585C57.5331 41.8974 57 42.4545 57 43.25V56.75C57 57.5455 57.5331 58.1026 58.0109 58.4415C58.5146 58.7988 59.1787 59.0796 59.9094 59.2988C61.3833 59.741 63.3597 60 65.5 60C67.6404 60 69.6167 59.741 71.0906 59.2988C71.8213 59.0796 72.4854 58.7988 72.9891 58.4415C73.4669 58.1026 74 57.5455 74 56.75V43.25C74 42.4545 73.4669 41.8974 72.9891 41.5585C72.4854 41.2012 71.8213 40.9204 71.0906 40.7012C69.6167 40.259 67.6404 40 65.5 40Z" fill="url(#paint2_linear_1510_30420)" stroke="white" stroke-width="2"/>
<defs>
<filter id="filter0_d_1510_30420" x="0" y="0" width="104" height="104" filterUnits="userSpaceOnUse" color-interpolation-filters="sRGB">
<feFlood flood-opacity="0" result="BackgroundImageFix"/>
<feColorMatrix in="SourceAlpha" type="matrix" values="0 0 0 0 0 0 0 0 0 0 0 0 0 0 0 0 0 0 127 0" result="hardAlpha"/>
<feOffset dy="6"/>
<feGaussianBlur stdDeviation="6"/>
<feComposite in2="hardAlpha" operator="out"/>
<feColorMatrix type="matrix" values="0 0 0 0 0.578472 0 0 0 0 0.645167 0 0 0 0 0.816667 0 0 0 0.25 0"/>
<feBlend mode="normal" in2="BackgroundImageFix" result="effect1_dropShadow_1510_30420"/>
<feBlend mode="normal" in="SourceGraphic" in2="effect1_dropShadow_1510_30420" result="shape"/>
</filter>
<linearGradient id="paint0_linear_1510_30420" x1="48.8243" y1="33.1892" x2="61.2639" y2="50.3619" gradientUnits="userSpaceOnUse">
<stop stop-color="#C40FE1"/>
<stop offset="0.9999" stop-color="#481699"/>
</linearGradient>
<linearGradient id="paint1_linear_1510_30420" x1="35.3243" y1="49.7331" x2="38.2051" y2="59.5225" gradientUnits="userSpaceOnUse">
<stop stop-color="#C40FE1"/>
<stop offset="0.9999" stop-color="#481699"/>
</linearGradient>
<linearGradient id="paint2_linear_1510_30420" x1="62.3243" y1="41.8919" x2="70.5618" y2="57.0543" gradientUnits="userSpaceOnUse">
<stop stop-color="#C40FE1"/>
<stop offset="0.9999" stop-color="#481699"/>
</linearGradient>
</defs>
</svg>
