<svg width="104" height="104" viewBox="0 0 104 104" fill="none" xmlns="http://www.w3.org/2000/svg">
<g filter="url(#filter0_d_1510_30422)">
<circle cx="52" cy="46" r="40" fill="white"/>
</g>
<path d="M31.2002 44.0294V58.4C31.2002 59.5046 32.0956 60.4 33.2002 60.4H44.6972C45.2494 60.4 45.6972 59.9523 45.6972 59.4V48.6C45.6972 48.0477 46.1449 47.6 46.6972 47.6H52.6002C53.1525 47.6 53.6002 48.0477 53.6002 48.6V59.4C53.6002 59.9523 54.0479 60.4 54.6002 60.4H70.8002C71.9048 60.4 72.8002 59.5046 72.8002 58.4V44.0294C72.8002 43.3994 72.5033 42.8063 71.9991 42.4286L58.3032 32.1714C57.3578 31.551 54.8366 30 52.0002 30C49.1638 30 46.6426 31.551 45.6972 32.1714L32.0013 42.4286C31.497 42.8063 31.2002 43.3994 31.2002 44.0294Z" fill="url(#paint0_linear_1510_30422)"/>
<defs>
<filter id="filter0_d_1510_30422" x="0" y="0" width="104" height="104" filterUnits="userSpaceOnUse" color-interpolation-filters="sRGB">
<feFlood flood-opacity="0" result="BackgroundImageFix"/>
<feColorMatrix in="SourceAlpha" type="matrix" values="0 0 0 0 0 0 0 0 0 0 0 0 0 0 0 0 0 0 127 0" result="hardAlpha"/>
<feOffset dy="6"/>
<feGaussianBlur stdDeviation="6"/>
<feComposite in2="hardAlpha" operator="out"/>
<feColorMatrix type="matrix" values="0 0 0 0 0.578472 0 0 0 0 0.645167 0 0 0 0 0.816667 0 0 0 0.25 0"/>
<feBlend mode="normal" in2="BackgroundImageFix" result="effect1_dropShadow_1510_30422"/>
<feBlend mode="normal" in="SourceGraphic" in2="effect1_dropShadow_1510_30422" result="shape"/>
</filter>
<linearGradient id="paint0_linear_1510_30422" x1="43.193" y1="31.5063" x2="53.0832" y2="61.4001" gradientUnits="userSpaceOnUse">
<stop stop-color="#C40FE1"/>
<stop offset="0.9999" stop-color="#481699"/>
</linearGradient>
</defs>
</svg>
