<svg width="80" height="80" viewBox="0 0 80 80" fill="none" xmlns="http://www.w3.org/2000/svg">
<circle cx="40" cy="40" r="40" fill="white"/>
<path fill-rule="evenodd" clip-rule="evenodd" d="M24 33.7996C24 33.2473 24.4477 32.7996 25 32.7996H55C55.5523 32.7996 56 33.2473 56 33.7996V49.5996C56 50.8726 55.5184 52.0935 54.6611 52.9937C53.8038 53.8939 52.641 54.3996 51.4286 54.3996H28.5714C27.359 54.3996 26.1962 53.8939 25.3389 52.9937C24.4816 52.0935 24 50.8726 24 49.5996V33.7996ZM35.4286 39.9996C35.4286 39.3631 35.6694 38.7526 36.098 38.3026C36.5267 37.8525 37.1081 37.5996 37.7143 37.5996H42.2857C42.8919 37.5996 43.4733 37.8525 43.902 38.3026C44.3306 38.7526 44.5714 39.3631 44.5714 39.9996C44.5714 40.6361 44.3306 41.2466 43.902 41.6967C43.4733 42.1468 42.8919 42.3996 42.2857 42.3996H37.7143C37.1081 42.3996 36.5267 42.1468 36.098 41.6967C35.6694 41.2466 35.4286 40.6361 35.4286 39.9996Z" fill="url(#paint0_linear_1510_30387)"/>
<path d="M28.5714 27.9996C28.5714 26.6741 29.5948 25.5996 30.8571 25.5996H49.1429C50.4052 25.5996 51.4286 26.6741 51.4286 27.9996V32.7996H28.5714V27.9996Z" fill="url(#paint1_linear_1510_30387)"/>
<defs>
<linearGradient id="paint0_linear_1510_30387" x1="33.2252" y1="27.0266" x2="44.205" y2="53.9732" gradientUnits="userSpaceOnUse">
<stop stop-color="#C40FE1"/>
<stop offset="0.9999" stop-color="#481699"/>
</linearGradient>
<linearGradient id="paint1_linear_1510_30387" x1="33.2252" y1="27.0266" x2="44.205" y2="53.9732" gradientUnits="userSpaceOnUse">
<stop stop-color="#C40FE1"/>
<stop offset="0.9999" stop-color="#481699"/>
</linearGradient>
</defs>
</svg>
