<svg width="80" height="80" viewBox="0 0 80 80" fill="none" xmlns="http://www.w3.org/2000/svg">
<circle cx="40" cy="40" r="40" fill="white"/>
<path d="M22.3999 33.1162L27.2871 33.0314C32.1916 21.7567 42.481 19.7482 46.8685 17.3139C47.1149 17.1771 47.2799 16.9337 47.3323 16.6568L47.6364 15.0484C47.7046 14.6878 47.9707 14.41 48.3376 14.4023C48.7524 14.3935 49.2707 14.4169 49.6423 14.4371C49.9436 14.4536 50.2283 14.5995 50.4182 14.8339L51.2109 15.813C51.6057 16.3006 51.4537 17.0579 51.1114 17.5837C50.0974 19.1415 49.9539 22.1981 51.1963 24.9951C51.2159 25.0392 51.2331 25.0859 51.2464 25.1323C53.9097 34.437 52.4297 39.6595 50.964 43.2087C50.9182 43.3198 50.8924 43.4369 50.888 43.5569L50.6491 49.9965C50.6472 50.0478 50.6492 50.0991 50.6552 50.15L51.367 56.2215C51.3833 56.3606 51.4287 56.4948 51.5001 56.6152L52.2422 57.8663C52.5418 58.3714 52.3436 59.0249 51.8138 59.2784L46.5093 61.8169C46.451 61.8448 46.3956 61.8783 46.3438 61.9168L40.2392 66.4612C40.1106 66.5569 39.9609 66.6203 39.8028 66.6461L37.0624 67.0923C36.6611 67.1577 36.2603 66.9736 36.0483 66.6267L32.323 60.5293C32.1251 60.2053 31.7607 60.0213 31.3825 60.0544L25.7307 60.5493C25.4553 60.5734 25.1823 60.4824 24.9763 60.298L23.6596 59.1187C23.4387 58.9209 23.3171 58.6352 23.3274 58.3389L23.3899 56.5486C23.3925 56.4715 23.4042 56.3949 23.4245 56.3204L24.3231 53.0244C24.3657 52.8683 24.4455 52.7248 24.5558 52.6063L25.4268 51.6701C25.7773 51.2934 25.7847 50.7122 25.444 50.3267L24.7215 49.5093C24.5599 49.3265 24.4707 49.091 24.4707 48.847V48.6218C24.4707 48.5724 24.4778 48.5233 24.4917 48.4759C24.5981 48.113 24.2929 47.7618 23.9187 47.8166L23.8971 47.8197C23.6913 47.8498 23.4869 47.7575 23.3734 47.5833L23.2776 47.4362C23.1419 47.2278 23.1098 46.9685 23.1907 46.7333L24.5882 42.6677C24.6202 42.5747 24.6657 42.487 24.7232 42.4073L25.7959 40.9219C25.9548 40.7018 26.0174 40.4265 25.9693 40.1593L25.538 37.7626C25.4911 37.5019 25.5495 37.2333 25.7004 37.0157L27.2871 34.7272L22.3999 33.1162Z" fill="url(#paint0_linear_1510_30388)"/>
<defs>
<linearGradient id="paint0_linear_1510_30388" x1="31.1639" y1="17.0166" x2="59.1534" y2="52.6117" gradientUnits="userSpaceOnUse">
<stop stop-color="#C40FE1"/>
<stop offset="0.9999" stop-color="#481699"/>
</linearGradient>
</defs>
</svg>
