<svg width="80" height="80" viewBox="0 0 80 80" fill="none" xmlns="http://www.w3.org/2000/svg">
<circle cx="40" cy="40" r="40" fill="white"/>
<path d="M49 35.7885L56 29.122C49.4544 39.1787 46.3398 48.2939 45.0813 56.8814C42.2857 59.2251 37.7143 59.2251 34.9187 56.8814C33.6602 48.2939 30.5456 39.1787 24 29.122L31 35.7885L26.5 27.8721L34 35.3718L33.9224 34.7901C31.831 33.338 30.5 31.1512 30.5 28.7054C30.5 24.4731 34.4857 21.0165 39.5 20.7998H40.5C45.5143 21.0165 49.5 24.4731 49.5 28.7054C49.5 31.1512 48.169 33.338 46.0776 34.7901L46 35.3718L53.5 27.8721L49 35.7885Z" fill="url(#paint0_linear_1510_30383)"/>
<defs>
<linearGradient id="paint0_linear_1510_30383" x1="46.7748" y1="22.6747" x2="29.5973" y2="54.761" gradientUnits="userSpaceOnUse">
<stop stop-color="#C40FE1"/>
<stop offset="0.9999" stop-color="#481699"/>
</linearGradient>
</defs>
</svg>
