<svg width="80" height="80" viewBox="0 0 80 80" fill="none" xmlns="http://www.w3.org/2000/svg">
<circle cx="40" cy="40" r="40" fill="white"/>
<path d="M40 25C37.8597 25 35.8833 25.259 34.4094 25.7012C33.6787 25.9204 33.0146 26.2012 32.5109 26.5585C32.0331 26.8974 31.5 27.4545 31.5 28.25V47.75C31.5 48.5455 32.0331 49.1026 32.5109 49.4415C33.0146 49.7988 33.6787 50.0796 34.4094 50.2988C35.8833 50.741 37.8597 51 40 51C42.1404 51 44.1167 50.741 45.5906 50.2988C46.3213 50.0796 46.9854 49.7988 47.4891 49.4415C47.9669 49.1026 48.5 48.5455 48.5 47.75V28.25C48.5 27.4545 47.9669 26.8974 47.4891 26.5585C46.9854 26.2012 46.3213 25.9204 45.5906 25.7012C44.1167 25.259 42.1404 25 40 25Z" fill="url(#paint0_linear_1510_30420)" stroke="white" stroke-width="2"/>
<path d="M26.5 42.25C24.3597 42.25 22.3833 42.509 20.9094 42.9512C20.1787 43.1704 19.5146 43.4512 19.0109 43.8085C18.5331 44.1474 18 44.7045 18 45.5V50.75C18 51.5455 18.5331 52.1026 19.0109 52.4415C19.5146 52.7988 20.1787 53.0796 20.9094 53.2988C22.3833 53.741 24.3597 54 26.5 54C28.6404 54 30.6167 53.741 32.0906 53.2988C32.8213 53.0796 33.4854 52.7988 33.9891 52.4415C34.4669 52.1026 35 51.5455 35 50.75V45.5C35 44.7045 34.4669 44.1474 33.9891 43.8085C33.4854 43.4512 32.8213 43.1704 32.0906 42.9512C30.6167 42.509 28.6404 42.25 26.5 42.25Z" fill="url(#paint1_linear_1510_30420)" stroke="white" stroke-width="2"/>
<path d="M53.5 34C51.3597 34 49.3833 34.259 47.9094 34.7012C47.1787 34.9204 46.5146 35.2012 46.0109 35.5585C45.5331 35.8974 45 36.4545 45 37.25V50.75C45 51.5455 45.5331 52.1026 46.0109 52.4415C46.5146 52.7988 47.1787 53.0796 47.9094 53.2988C49.3833 53.741 51.3597 54 53.5 54C55.6404 54 57.6167 53.741 59.0906 53.2988C59.8213 53.0796 60.4854 52.7988 60.9891 52.4415C61.4669 52.1026 62 51.5455 62 50.75V37.25C62 36.4545 61.4669 35.8974 60.9891 35.5585C60.4854 35.2012 59.8213 34.9204 59.0906 34.7012C57.6167 34.259 55.6404 34 53.5 34Z" fill="url(#paint2_linear_1510_30420)" stroke="white" stroke-width="2"/>
<defs>
<linearGradient id="paint0_linear_1510_30420" x1="36.8243" y1="27.1892" x2="49.2639" y2="44.3619" gradientUnits="userSpaceOnUse">
<stop stop-color="#C40FE1"/>
<stop offset="0.9999" stop-color="#481699"/>
</linearGradient>
<linearGradient id="paint1_linear_1510_30420" x1="23.3243" y1="43.7331" x2="26.2051" y2="53.5225" gradientUnits="userSpaceOnUse">
<stop stop-color="#C40FE1"/>
<stop offset="0.9999" stop-color="#481699"/>
</linearGradient>
<linearGradient id="paint2_linear_1510_30420" x1="50.3243" y1="35.8919" x2="58.5618" y2="51.0543" gradientUnits="userSpaceOnUse">
<stop stop-color="#C40FE1"/>
<stop offset="0.9999" stop-color="#481699"/>
</linearGradient>
</defs>
</svg>
