<svg width="104" height="104" viewBox="0 0 104 104" fill="none" xmlns="http://www.w3.org/2000/svg">
<g filter="url(#filter0_d_1510_30421)">
<circle cx="52" cy="46" r="40" fill="white"/>
</g>
<path d="M41.2562 55.1301L40.3477 58.3099C40.3222 58.3992 40.3088 58.4923 40.3104 58.5852C40.4011 63.8489 45.5927 68.1591 56.7777 68.3899C57.3105 68.4009 57.752 67.9818 57.7786 67.4495L58.1844 59.3332C58.2098 58.8265 58.6105 58.4191 59.1167 58.3854L64.654 58.0162C65.2217 57.9783 65.6435 57.475 65.5815 56.9094L65.4012 55.2646C65.3793 55.065 65.418 54.8634 65.5123 54.6861L66.4099 52.9986C66.5826 52.6739 66.5631 52.2806 66.3591 51.9745L66.0647 51.5327C65.8409 51.1969 65.8409 50.7595 66.0647 50.4236L66.4458 49.8518C66.6015 49.6181 66.6518 49.3296 66.5843 49.0569L66.5219 48.8052C66.4053 48.3346 66.6431 47.8481 67.0861 47.6511L68.6667 46.9479C69.2076 46.7073 69.4222 46.0521 69.1285 45.5381L65.9607 39.9944C65.7948 39.7041 65.785 39.3502 65.9344 39.0512L66.5519 37.8158C66.642 37.6354 66.675 37.4249 66.6455 37.2253C64.5619 23.1111 55.2024 23.6017 49.7666 23.6017C40.8639 23.6017 29.5044 34.4129 40.5906 47.7347C40.727 47.8986 40.8152 48.1064 40.8304 48.3191L41.2922 54.7841C41.3005 54.9007 41.2883 55.0177 41.2562 55.1301Z" fill="url(#paint0_linear_1510_30421)"/>
<defs>
<filter id="filter0_d_1510_30421" x="0" y="0" width="104" height="104" filterUnits="userSpaceOnUse" color-interpolation-filters="sRGB">
<feFlood flood-opacity="0" result="BackgroundImageFix"/>
<feColorMatrix in="SourceAlpha" type="matrix" values="0 0 0 0 0 0 0 0 0 0 0 0 0 0 0 0 0 0 127 0" result="hardAlpha"/>
<feOffset dy="6"/>
<feGaussianBlur stdDeviation="6"/>
<feComposite in2="hardAlpha" operator="out"/>
<feColorMatrix type="matrix" values="0 0 0 0 0.578472 0 0 0 0 0.645167 0 0 0 0 0.816667 0 0 0 0.25 0"/>
<feBlend mode="normal" in2="BackgroundImageFix" result="effect1_dropShadow_1510_30421"/>
<feBlend mode="normal" in="SourceGraphic" in2="effect1_dropShadow_1510_30421" result="shape"/>
</filter>
<linearGradient id="paint0_linear_1510_30421" x1="45.7088" y1="25.8194" x2="67.3099" y2="61.686" gradientUnits="userSpaceOnUse">
<stop stop-color="#C40FE1"/>
<stop offset="0.9999" stop-color="#481699"/>
</linearGradient>
</defs>
</svg>
