<svg width="80" height="80" viewBox="0 0 80 80" fill="none" xmlns="http://www.w3.org/2000/svg">
<circle cx="40" cy="40" r="40" fill="white"/>
<path d="M29.2562 49.1301L28.3477 52.3099C28.3222 52.3992 28.3088 52.4923 28.3104 52.5852C28.4011 57.8489 33.5927 62.1591 44.7777 62.3899C45.3105 62.4009 45.752 61.9818 45.7786 61.4495L46.1844 53.3332C46.2098 52.8265 46.6105 52.4191 47.1167 52.3854L52.654 52.0162C53.2217 51.9783 53.6435 51.475 53.5815 50.9094L53.4012 49.2646C53.3793 49.065 53.418 48.8634 53.5123 48.6861L54.4099 46.9986C54.5826 46.6739 54.5631 46.2806 54.3591 45.9745L54.0647 45.5327C53.8409 45.1969 53.8409 44.7595 54.0647 44.4236L54.4458 43.8518C54.6015 43.6181 54.6518 43.3296 54.5843 43.0569L54.5219 42.8052C54.4053 42.3346 54.6431 41.8481 55.0861 41.6511L56.6667 40.9479C57.2076 40.7073 57.4222 40.0521 57.1285 39.5381L53.9607 33.9944C53.7948 33.7041 53.785 33.3502 53.9344 33.0512L54.5519 31.8158C54.642 31.6354 54.675 31.4249 54.6455 31.2253C52.5619 17.1111 43.2024 17.6017 37.7666 17.6017C28.8639 17.6017 17.5044 28.4129 28.5906 41.7347C28.727 41.8986 28.8152 42.1064 28.8304 42.3191L29.2922 48.7841C29.3005 48.9007 29.2883 49.0177 29.2562 49.1301Z" fill="url(#paint0_linear_1510_30421)"/>
<defs>
<linearGradient id="paint0_linear_1510_30421" x1="33.7088" y1="19.8194" x2="55.3099" y2="55.686" gradientUnits="userSpaceOnUse">
<stop stop-color="#C40FE1"/>
<stop offset="0.9999" stop-color="#481699"/>
</linearGradient>
</defs>
</svg>
