<svg width="80" height="80" viewBox="0 0 80 80" fill="none" xmlns="http://www.w3.org/2000/svg">
<circle cx="40" cy="40" r="40" fill="white"/>
<path d="M37.5998 28.1471C37.5998 27.7638 37.3817 27.4122 37.0316 27.2564C34.5698 26.1612 31.9009 25.5956 29.1998 25.5996C26.4108 25.5996 23.7597 26.1937 21.3684 27.2566C21.0181 27.4123 20.7998 27.764 20.7998 28.1474V49.8157C20.7998 50.5536 21.5747 51.0416 22.2632 50.7761C24.471 49.9248 26.8229 49.4872 29.1998 49.4907C32.9617 49.4907 36.4696 50.5654 39.4313 52.4279C39.7784 52.6462 40.2213 52.6462 40.5684 52.428C43.6264 50.5061 47.1741 49.485 50.7998 49.4907C53.2456 49.4907 55.5854 49.9475 57.7369 50.7768C58.4254 51.0422 59.1998 50.5542 59.1998 49.8165V28.1471C59.1998 27.7638 58.9817 27.4122 58.6316 27.2564C56.1698 26.1612 53.5009 25.5956 50.7998 25.5996C48.0108 25.5996 45.3597 26.1937 42.9684 27.2566C42.6181 27.4123 42.3998 27.764 42.3998 28.1474V31.2105C42.3998 31.8441 42.1469 32.4518 41.6969 32.8999C41.2468 33.3479 40.6363 33.5996 39.9998 33.5996C39.3633 33.5996 38.7528 33.3479 38.3027 32.8999C37.8527 32.4518 37.5998 31.8441 37.5998 31.2105V28.1471Z" fill="url(#paint0_linear_1510_30416)"/>
<defs>
<linearGradient id="paint0_linear_1510_30416" x1="31.8701" y1="26.9474" x2="40.499" y2="53.855" gradientUnits="userSpaceOnUse">
<stop stop-color="#C40FE1"/>
<stop offset="0.9999" stop-color="#481699"/>
</linearGradient>
</defs>
</svg>
