<svg width="80" height="80" viewBox="0 0 80 80" fill="none" xmlns="http://www.w3.org/2000/svg">
<circle cx="40" cy="40" r="40" fill="white"/>
<path d="M33.3968 19.2002H40.8H48.2033C48.8622 19.2002 49.341 19.8263 49.1684 20.4622L46.8513 28.9986C46.7139 29.505 46.9929 30.0279 47.4751 30.2349C55.442 33.6554 60.8187 45.0101 49.6233 58.0551C49.4259 58.2852 49.3339 58.5968 49.3859 58.8955L49.4029 58.9927C49.4689 59.3711 49.3164 59.7622 48.9745 59.9372C47.2888 60.8002 44.7144 60.8002 40.8 60.8002C36.8856 60.8002 34.3113 60.8002 32.6257 59.9372C32.2838 59.7622 32.1313 59.3711 32.1973 58.9927L32.2142 58.8955C32.2663 58.5968 32.1743 58.2852 31.9769 58.0551C20.7815 45.0101 26.1582 33.6554 34.1251 30.2349C34.6073 30.0279 34.8863 29.505 34.7488 28.9986L32.4318 20.4622C32.2592 19.8263 32.738 19.2002 33.3968 19.2002Z" fill="url(#paint0_linear_1510_30367)"/>
<defs>
<linearGradient id="paint0_linear_1510_30367" x1="34.3641" y1="21.2615" x2="54.6828" y2="54.0583" gradientUnits="userSpaceOnUse">
<stop stop-color="#C40FE1"/>
<stop offset="0.9999" stop-color="#481699"/>
</linearGradient>
</defs>
</svg>
