<svg width="80" height="80" viewBox="0 0 80 80" fill="none" xmlns="http://www.w3.org/2000/svg">
<circle cx="40" cy="40" r="40" fill="white"/>
<path d="M19.2002 38.0294V52.4C19.2002 53.5046 20.0956 54.4 21.2002 54.4H32.6972C33.2494 54.4 33.6972 53.9523 33.6972 53.4V42.6C33.6972 42.0477 34.1449 41.6 34.6972 41.6H40.6002C41.1525 41.6 41.6002 42.0477 41.6002 42.6V53.4C41.6002 53.9523 42.0479 54.4 42.6002 54.4H58.8002C59.9048 54.4 60.8002 53.5046 60.8002 52.4V38.0294C60.8002 37.3994 60.5033 36.8063 59.9991 36.4286L46.3032 26.1714C45.3578 25.551 42.8366 24 40.0002 24C37.1638 24 34.6426 25.551 33.6972 26.1714L20.0013 36.4286C19.497 36.8063 19.2002 37.3994 19.2002 38.0294Z" fill="url(#paint0_linear_1510_30422)"/>
<defs>
<linearGradient id="paint0_linear_1510_30422" x1="31.193" y1="25.5063" x2="41.0832" y2="55.4001" gradientUnits="userSpaceOnUse">
<stop stop-color="#C40FE1"/>
<stop offset="0.9999" stop-color="#481699"/>
</linearGradient>
</defs>
</svg>
