<svg width="80" height="80" viewBox="0 0 80 80" fill="none" xmlns="http://www.w3.org/2000/svg">
<circle cx="40" cy="40" r="40" fill="white"/>
<rect x="38.6094" y="51.875" width="21.7966" height="5.81243" rx="2" fill="url(#paint0_linear_1510_30418)"/>
<path fill-rule="evenodd" clip-rule="evenodd" d="M28.8989 28.8642C28.043 28.0177 28.0354 26.6376 28.8819 25.7817L36.0346 18.5496C36.8811 17.6937 38.2612 17.6861 39.1171 18.5326C39.7917 19.1999 39.9393 20.1987 39.5569 21.0109L53.1645 34.469C53.9725 34.0776 54.9729 34.2142 55.6476 34.8815C56.5035 35.7279 56.5111 37.108 55.6646 37.9639L48.5119 45.196C47.6654 46.0519 46.2854 46.0596 45.4295 45.2131C44.7546 44.5456 44.6071 43.5465 44.9899 42.7341L39.6474 37.4504C39.5447 37.6687 39.4037 37.8735 39.2244 38.0548L23.8973 53.5523C23.0508 54.4082 21.6707 54.4158 20.8148 53.5693C19.9589 52.7228 19.9513 51.3427 20.7978 50.4868L36.125 34.9894C36.3043 34.8081 36.5075 34.6649 36.7247 34.5597L31.3826 29.2764C30.5745 29.6681 29.5738 29.5316 28.8989 28.8642Z" fill="url(#paint1_linear_1510_30418)"/>
<defs>
<linearGradient id="paint0_linear_1510_30418" x1="44.8931" y1="52.163" x2="45.6477" y2="58.4132" gradientUnits="userSpaceOnUse">
<stop stop-color="#C40FE1"/>
<stop offset="0.9999" stop-color="#481699"/>
</linearGradient>
<linearGradient id="paint1_linear_1510_30418" x1="19.6317" y1="37.0801" x2="45.2511" y2="49.785" gradientUnits="userSpaceOnUse">
<stop stop-color="#C40FE1"/>
<stop offset="0.9999" stop-color="#481699"/>
</linearGradient>
</defs>
</svg>
