<svg width="80" height="80" viewBox="0 0 80 80" fill="none" xmlns="http://www.w3.org/2000/svg">
<circle cx="40" cy="40" r="40" fill="white"/>
<path d="M53.8658 35.0469C54.4022 34.1593 54.7604 33.1685 54.9188 32.1339C55.0773 31.0992 55.0327 30.0421 54.7877 29.0257C54.5428 28.0094 54.1025 27.0548 53.4934 26.2192C52.8842 25.3837 52.1187 24.6843 51.2427 24.163C48.3846 21.6971 45.7505 18.9647 43.3734 16V56.8148M43.3734 56.8148C43.1858 59.1546 42.117 61.3234 40.3985 62.8514C38.68 64.3793 36.4503 65.1433 34.1926 64.9778C31.9348 65.1433 29.7051 64.3793 27.9866 62.8514C26.2681 61.3234 25.1993 59.1546 25.0117 56.8148C25.1993 54.475 26.2681 52.3062 27.9866 50.7782C29.7051 49.2503 31.9348 48.4863 34.1926 48.6518C36.4503 48.4863 38.68 49.2503 40.3985 50.7782C42.117 52.3062 43.1858 54.475 43.3734 56.8148Z" stroke="url(#paint0_linear_1510_30389)" stroke-width="6" stroke-linecap="round" stroke-linejoin="round"/>
<defs>
<linearGradient id="paint0_linear_1510_30389" x1="33.6604" y1="18.4279" x2="59.2166" y2="52.9882" gradientUnits="userSpaceOnUse">
<stop stop-color="#C40FE1"/>
<stop offset="0.9999" stop-color="#481699"/>
</linearGradient>
</defs>
</svg>
