<svg width="104" height="104" viewBox="0 0 104 104" fill="none" xmlns="http://www.w3.org/2000/svg">
<g filter="url(#filter0_d_1510_30389)">
<circle cx="52" cy="46" r="40" fill="white"/>
</g>
<path d="M65.8658 41.0469C66.4022 40.1593 66.7604 39.1685 66.9188 38.1339C67.0773 37.0992 67.0327 36.0421 66.7877 35.0257C66.5428 34.0094 66.1025 33.0548 65.4934 32.2192C64.8842 31.3837 64.1187 30.6843 63.2427 30.163C60.3846 27.6971 57.7505 24.9647 55.3734 22V62.8148M55.3734 62.8148C55.1858 65.1546 54.117 67.3234 52.3985 68.8514C50.68 70.3793 48.4503 71.1433 46.1926 70.9778C43.9348 71.1433 41.7051 70.3793 39.9866 68.8514C38.2681 67.3234 37.1993 65.1546 37.0117 62.8148C37.1993 60.475 38.2681 58.3062 39.9866 56.7782C41.7051 55.2503 43.9348 54.4863 46.1926 54.6518C48.4503 54.4863 50.68 55.2503 52.3985 56.7782C54.117 58.3062 55.1858 60.475 55.3734 62.8148Z" stroke="url(#paint0_linear_1510_30389)" stroke-width="6" stroke-linecap="round" stroke-linejoin="round"/>
<defs>
<filter id="filter0_d_1510_30389" x="0" y="0" width="104" height="104" filterUnits="userSpaceOnUse" color-interpolation-filters="sRGB">
<feFlood flood-opacity="0" result="BackgroundImageFix"/>
<feColorMatrix in="SourceAlpha" type="matrix" values="0 0 0 0 0 0 0 0 0 0 0 0 0 0 0 0 0 0 127 0" result="hardAlpha"/>
<feOffset dy="6"/>
<feGaussianBlur stdDeviation="6"/>
<feComposite in2="hardAlpha" operator="out"/>
<feColorMatrix type="matrix" values="0 0 0 0 0.578472 0 0 0 0 0.645167 0 0 0 0 0.816667 0 0 0 0.25 0"/>
<feBlend mode="normal" in2="BackgroundImageFix" result="effect1_dropShadow_1510_30389"/>
<feBlend mode="normal" in="SourceGraphic" in2="effect1_dropShadow_1510_30389" result="shape"/>
</filter>
<linearGradient id="paint0_linear_1510_30389" x1="45.6604" y1="24.4279" x2="71.2166" y2="58.9882" gradientUnits="userSpaceOnUse">
<stop stop-color="#C40FE1"/>
<stop offset="0.9999" stop-color="#481699"/>
</linearGradient>
</defs>
</svg>
