<svg width="80" height="80" viewBox="0 0 80 80" fill="none" xmlns="http://www.w3.org/2000/svg">
<circle cx="40" cy="40" r="40" fill="white"/>
<path d="M37.2621 42.843C36.6169 49.1702 27.155 53.1966 19.2002 46.486C19.3141 55.0737 29.6857 56.2947 37.6917 53.1967C36.8793 55.7317 36.2079 58.9508 39.3961 61.8849C39.7377 62.1993 40.2627 62.1993 40.6043 61.8849C43.7925 58.9508 43.121 55.7317 42.3087 53.1967C50.3147 56.2947 60.6862 55.0737 60.8002 46.486C52.8454 53.1966 43.3835 49.1702 42.7383 42.843C42.3669 39.2 44.6742 35.7488 48.3301 35.1736C53.7063 34.3277 54.5665 37.6661 53.4912 39.7752C52.5137 41.6926 50.9107 42.2678 47.6849 41.6926C49.4053 47.0612 56.0718 45.5273 58.4374 42.4595C62.9534 35.7488 57.1152 30.523 53.4912 29.805C49.6204 29.038 48.115 29.805 44.0291 31.7223C47.1682 25.5649 46.4919 20.1337 40.5075 16.3125C40.1987 16.1153 39.8017 16.1153 39.4929 16.3125C33.5085 20.1337 32.8321 25.5649 35.9713 31.7223C31.8854 29.805 30.38 29.038 26.5091 29.805C22.8852 30.523 17.047 35.7488 21.563 42.4595C23.9286 45.5273 30.5951 47.0612 32.3155 41.6926C29.0897 42.2678 27.4866 41.6926 26.5091 39.7752C25.4339 37.6661 26.2941 34.3277 31.6703 35.1736C35.3262 35.7488 37.6335 39.2 37.2621 42.843Z" fill="url(#paint0_linear_1510_30419)"/>
<defs>
<linearGradient id="paint0_linear_1510_30419" x1="31.193" y1="18.2991" x2="51.5617" y2="58.6352" gradientUnits="userSpaceOnUse">
<stop stop-color="#C40FE1"/>
<stop offset="0.9999" stop-color="#481699"/>
</linearGradient>
</defs>
</svg>
