<svg width="80" height="80" viewBox="0 0 80 80" fill="none" xmlns="http://www.w3.org/2000/svg">
<circle cx="40" cy="40" r="40" fill="white"/>
<path d="M18.9043 51.2H34.1001C34.6524 51.2 35.1001 50.7523 35.1001 50.2V42.3643C35.1001 40.4009 35.8001 36.4739 40.0001 36.4739C44.2001 36.4739 44.9001 40.4009 44.9001 42.3643V50.2C44.9001 50.7523 45.3478 51.2 45.9001 51.2H61.0959C61.7537 51.2 62.2326 50.5763 62.0548 49.943C60.1129 43.0266 57.1277 34.871 53.1251 29.484C49.9751 25.2445 44.5501 24 40.0001 24C35.4501 24 30.0251 25.2445 26.8751 29.484C22.8725 34.871 19.8873 43.0266 17.9454 49.943C17.7676 50.5763 18.2465 51.2 18.9043 51.2Z" fill="url(#paint0_linear_1510_30384)"/>
<defs>
<linearGradient id="paint0_linear_1510_30384" x1="30.5154" y1="25.3477" x2="38.0993" y2="52.938" gradientUnits="userSpaceOnUse">
<stop stop-color="#C40FE1"/>
<stop offset="0.9999" stop-color="#481699"/>
</linearGradient>
</defs>
</svg>
