<svg width="80" height="80" viewBox="0 0 80 80" fill="none" xmlns="http://www.w3.org/2000/svg">
<circle cx="40" cy="40" r="40" fill="white"/>
<path fill-rule="evenodd" clip-rule="evenodd" d="M32 32V30C32 28.4087 32.6321 26.8826 33.7574 25.7574C34.8826 24.6321 36.4087 24 38 24H42C43.5913 24 45.1174 24.6321 46.2426 25.7574C47.3679 26.8826 48 28.4087 48 30V32H52C53.0609 32 54.0783 32.4214 54.8284 33.1716C55.5786 33.9217 56 34.9391 56 36V48.14C50.8792 50.0375 45.461 51.006 40 51C34.539 51.0061 29.1207 50.0375 24 48.14V36C24 34.9391 24.4214 33.9217 25.1716 33.1716C25.9217 32.4214 26.9391 32 28 32H32ZM36 30C36 29.4696 36.2107 28.9609 36.5858 28.5858C36.9609 28.2107 37.4696 28 38 28H42C42.5304 28 43.0391 28.2107 43.4142 28.5858C43.7893 28.9609 44 29.4696 44 30V32H36V30ZM38 40C38 39.4696 38.2107 38.9609 38.5858 38.5858C38.9609 38.2107 39.4696 38 40 38H40.02C40.5504 38 41.0591 38.2107 41.4342 38.5858C41.8093 38.9609 42.02 39.4696 42.02 40C42.02 40.5304 41.8093 41.0391 41.4342 41.4142C41.0591 41.7893 40.5504 42 40.02 42H40C39.4696 42 38.9609 41.7893 38.5858 41.4142C38.2107 41.0391 38 40.5304 38 40Z" fill="url(#paint0_linear_1510_30417)"/>
<path d="M24 47.3838V51.9998C24 53.0607 24.4214 54.0781 25.1716 54.8282C25.9217 55.5784 26.9391 55.9998 28 55.9998H52C53.0609 55.9998 54.0783 55.5784 54.8284 54.8282C55.5786 54.0781 56 53.0607 56 51.9998V47.3838C50.8447 49.1213 45.4402 50.0049 40 49.9998C34.408 49.9998 29.026 49.0798 24 47.3838Z" fill="url(#paint1_linear_1510_30417)"/>
<path d="M36.8 39.9996C36.8 38.6741 37.8746 37.5996 39.2 37.5996H40.8C42.1255 37.5996 43.2 38.6741 43.2 39.9996C43.2 41.3251 42.1255 42.3996 40.8 42.3996H39.2001C37.8746 42.3996 36.8 41.3251 36.8 39.9996Z" fill="white"/>
<defs>
<linearGradient id="paint0_linear_1510_30417" x1="33.2252" y1="25.3378" x2="43.0447" y2="51.0435" gradientUnits="userSpaceOnUse">
<stop stop-color="#C40FE1"/>
<stop offset="0.9999" stop-color="#481699"/>
</linearGradient>
<linearGradient id="paint1_linear_1510_30417" x1="33.2252" y1="47.8107" x2="34.3543" y2="57.073" gradientUnits="userSpaceOnUse">
<stop stop-color="#C40FE1"/>
<stop offset="0.9999" stop-color="#481699"/>
</linearGradient>
</defs>
</svg>
