<svg width="104" height="104" viewBox="0 0 104 104" fill="none" xmlns="http://www.w3.org/2000/svg">
<g filter="url(#filter0_d_1510_30417)">
<circle cx="52" cy="46" r="40" fill="white"/>
</g>
<path fill-rule="evenodd" clip-rule="evenodd" d="M44 38V36C44 34.4087 44.6321 32.8826 45.7574 31.7574C46.8826 30.6321 48.4087 30 50 30H54C55.5913 30 57.1174 30.6321 58.2426 31.7574C59.3679 32.8826 60 34.4087 60 36V38H64C65.0609 38 66.0783 38.4214 66.8284 39.1716C67.5786 39.9217 68 40.9391 68 42V54.14C62.8792 56.0375 57.461 57.006 52 57C46.539 57.0061 41.1207 56.0375 36 54.14V42C36 40.9391 36.4214 39.9217 37.1716 39.1716C37.9217 38.4214 38.9391 38 40 38H44ZM48 36C48 35.4696 48.2107 34.9609 48.5858 34.5858C48.9609 34.2107 49.4696 34 50 34H54C54.5304 34 55.0391 34.2107 55.4142 34.5858C55.7893 34.9609 56 35.4696 56 36V38H48V36ZM50 46C50 45.4696 50.2107 44.9609 50.5858 44.5858C50.9609 44.2107 51.4696 44 52 44H52.02C52.5504 44 53.0591 44.2107 53.4342 44.5858C53.8093 44.9609 54.02 45.4696 54.02 46C54.02 46.5304 53.8093 47.0391 53.4342 47.4142C53.0591 47.7893 52.5504 48 52.02 48H52C51.4696 48 50.9609 47.7893 50.5858 47.4142C50.2107 47.0391 50 46.5304 50 46Z" fill="url(#paint0_linear_1510_30417)"/>
<path d="M36 53.3838V57.9998C36 59.0607 36.4214 60.0781 37.1716 60.8282C37.9217 61.5784 38.9391 61.9998 40 61.9998H64C65.0609 61.9998 66.0783 61.5784 66.8284 60.8282C67.5786 60.0781 68 59.0607 68 57.9998V53.3838C62.8447 55.1213 57.4402 56.0049 52 55.9998C46.408 55.9998 41.026 55.0798 36 53.3838Z" fill="url(#paint1_linear_1510_30417)"/>
<path d="M48.7998 45.9996C48.7998 44.6741 49.8743 43.5996 51.1998 43.5996H52.7998C54.1253 43.5996 55.1998 44.6741 55.1998 45.9996C55.1998 47.3251 54.1253 48.3996 52.7998 48.3996H51.1998C49.8743 48.3996 48.7998 47.3251 48.7998 45.9996Z" fill="white"/>
<defs>
<filter id="filter0_d_1510_30417" x="0" y="0" width="104" height="104" filterUnits="userSpaceOnUse" color-interpolation-filters="sRGB">
<feFlood flood-opacity="0" result="BackgroundImageFix"/>
<feColorMatrix in="SourceAlpha" type="matrix" values="0 0 0 0 0 0 0 0 0 0 0 0 0 0 0 0 0 0 127 0" result="hardAlpha"/>
<feOffset dy="6"/>
<feGaussianBlur stdDeviation="6"/>
<feComposite in2="hardAlpha" operator="out"/>
<feColorMatrix type="matrix" values="0 0 0 0 0.578472 0 0 0 0 0.645167 0 0 0 0 0.816667 0 0 0 0.25 0"/>
<feBlend mode="normal" in2="BackgroundImageFix" result="effect1_dropShadow_1510_30417"/>
<feBlend mode="normal" in="SourceGraphic" in2="effect1_dropShadow_1510_30417" result="shape"/>
</filter>
<linearGradient id="paint0_linear_1510_30417" x1="45.2252" y1="31.3378" x2="55.0447" y2="57.0435" gradientUnits="userSpaceOnUse">
<stop stop-color="#C40FE1"/>
<stop offset="0.9999" stop-color="#481699"/>
</linearGradient>
<linearGradient id="paint1_linear_1510_30417" x1="45.2252" y1="53.8107" x2="46.3543" y2="63.073" gradientUnits="userSpaceOnUse">
<stop stop-color="#C40FE1"/>
<stop offset="0.9999" stop-color="#481699"/>
</linearGradient>
</defs>
</svg>
