<svg width="80" height="80" viewBox="0 0 80 80" fill="none" xmlns="http://www.w3.org/2000/svg">
<circle cx="40" cy="40" r="40" fill="white"/>
<path d="M47.987 55.1922L45.1069 51.1602" stroke="url(#paint0_linear_1510_30368)" stroke-width="6" stroke-linecap="round"/>
<path d="M30 38.001C30 34.0368 31.2219 31.3458 32.8907 29.6565C34.5691 27.9575 36.9661 27 39.8255 27C42.6849 27 45.0819 27.9575 46.7603 29.6565C48.4292 31.3458 49.651 34.0368 49.651 38.001V41.6855C49.651 46.7566 47.6655 49.7835 45.1274 51.3151C43.6661 52.197 41.8645 52.6866 39.8255 52.6866C36.9661 52.6866 34.5691 51.7291 32.8907 50.0301C31.2219 48.3408 30 45.6498 30 41.6855V38.001Z" stroke="url(#paint1_linear_1510_30368)" stroke-width="6"/>
<defs>
<linearGradient id="paint0_linear_1510_30368" x1="45.9372" y1="51.3599" x2="47.9263" y2="54.4981" gradientUnits="userSpaceOnUse">
<stop stop-color="#C40FE1"/>
<stop offset="0.9999" stop-color="#481699"/>
</linearGradient>
<linearGradient id="paint1_linear_1510_30368" x1="34.3949" y1="25.5701" x2="49.1221" y2="51.9033" gradientUnits="userSpaceOnUse">
<stop stop-color="#C40FE1"/>
<stop offset="0.9999" stop-color="#481699"/>
</linearGradient>
</defs>
</svg>
