<svg width="80" height="80" viewBox="0 0 80 80" fill="none" xmlns="http://www.w3.org/2000/svg">
<circle cx="40" cy="40" r="40" fill="white"/>
<path d="M46.6 36L56.3131 31.448C56.6382 31.2957 56.9995 31.2238 57.3627 31.2391C57.7258 31.2544 58.0787 31.3565 58.388 31.5356C58.6972 31.7147 58.9525 31.965 59.1296 32.2625C59.3067 32.5601 59.3998 32.8952 59.4 33.236V46.764C59.3998 47.1048 59.3067 47.4399 59.1296 47.7375C58.9525 48.035 58.6972 48.2853 58.388 48.4644C58.0787 48.6435 57.7258 48.7456 57.3627 48.7609C56.9995 48.7762 56.6382 48.7043 56.3131 48.552L46.6 44V36ZM25.2667 52H42.3333C43.4649 52 44.5502 51.5786 45.3503 50.8284C46.1505 50.0783 46.6 49.0609 46.6 48V32C46.6 30.9391 46.1505 29.9217 45.3503 29.1716C44.5502 28.4214 43.4649 28 42.3333 28H25.2667C24.1351 28 23.0498 28.4214 22.2497 29.1716C21.4495 29.9217 21 30.9391 21 32V48C21 49.0609 21.4495 50.0783 22.2497 50.8284C23.0498 51.5786 24.1351 52 25.2667 52Z" fill="url(#paint0_linear_1510_30385)"/>
<defs>
<linearGradient id="paint0_linear_1510_30385" x1="32.0703" y1="29.1892" x2="38.93" y2="53.4318" gradientUnits="userSpaceOnUse">
<stop stop-color="#C40FE1"/>
<stop offset="0.9999" stop-color="#481699"/>
</linearGradient>
</defs>
</svg>
